<svg width="194" height="47" viewBox="0 0 194 47" fill="none" xmlns="http://www.w3.org/2000/svg">
<path d="M61.4167 20.3801C60.4017 20.0706 59.3018 20.1486 58.33 20.6C57.8375 20.829 57.3854 21.1514 56.9868 21.527C56.7876 21.7214 56.6017 21.9292 56.4293 22.1569C56.3431 22.2707 56.2569 22.3846 56.1774 22.5118C56.1442 22.5587 56.111 22.5989 56.1113 22.659C56.1115 22.699 56.0954 20.4357 56.0953 20.4157L54.6215 20.4152C54.622 20.5353 54.6736 32.8868 54.6736 32.8868L54.6761 33.4877L56.1431 33.4816L56.1406 32.8807L56.1121 24.4483C56.8657 22.8695 58.5072 21.5206 60.2817 21.6601C61.0555 21.7236 61.7905 22.0744 62.3132 22.6798C62.8761 23.3251 63.1597 24.1852 63.2566 25.0394C63.3533 25.8402 63.3035 26.6683 63.3068 27.4695L63.3228 31.2951L63.3318 33.4583L64.6855 33.4526C64.7722 33.4523 64.7656 33.459 64.7652 33.3788L64.7638 33.0317L64.7353 26.2216C64.7322 25.4739 64.7491 24.726 64.586 23.9923C64.2054 22.278 63.0325 20.8741 61.4167 20.3801ZM154.703 23.2623L154.742 20.0373L154.742 19.9973L153.282 20.0034L153.336 33.0759L154.797 33.0698L154.797 33.0298L154.709 24.9247C155.146 24.055 156.688 21.2844 158.535 21.25C159.142 21.2341 160.004 21.7646 160.902 22.7023L160.942 22.7422L160.969 22.702L161.77 21.3366L161.783 21.3032L161.756 21.2766C160.598 20.1931 159.663 19.7297 158.743 19.7936C157.129 19.8738 155.796 21.5752 154.703 23.2623ZM160.948 22.642L160.955 22.6353C160.962 22.6419 160.962 22.6419 160.962 22.6419L160.948 22.642ZM51.7795 23.3313C51.7568 17.8967 46.8774 13.5773 41.916 13.6046L41.836 13.605C36.5479 13.6137 32.019 18.1927 32.0422 23.7676C32.0655 29.3425 36.6258 33.8835 41.9205 33.8481L42.0005 33.8478C47.6154 33.831 51.8033 29.0397 51.7795 23.3313ZM41.9536 32.1922C37.5457 32.2105 33.6291 28.488 33.6093 23.7544C33.5896 19.0207 37.475 15.2656 41.8829 15.2472C46.2908 15.2288 50.2208 18.9446 50.2405 23.6849C50.2537 28.4253 46.3615 32.1738 41.9536 32.1922ZM77.2378 21.1487C77.2579 21.1552 76.6499 20.884 76.4161 20.7849C76.0553 20.6261 75.6946 20.4808 75.314 20.3755C74.5128 20.1452 73.6458 20.1288 72.8193 20.2257C70.9997 20.4469 69.3635 21.4553 68.4169 23.135C66.5767 26.4076 67.5307 31.2976 70.8789 33.0395C72.4428 33.8609 74.3904 33.9529 76.0012 33.2251C76.2208 33.1241 76.4404 33.0096 76.6533 32.8819C76.7597 32.8214 76.8661 32.7541 76.9659 32.687C77.0191 32.6534 77.2853 32.5187 77.2851 32.4653C77.2851 32.4653 77.2756 33.3867 77.2956 33.3866L77.8557 33.3843C77.9291 33.384 78.6827 33.4009 78.6826 33.3675L78.6813 33.0604L78.6005 13.6986C78.6004 13.6919 77.2067 13.691 77.2068 13.711L77.2346 20.3809L77.2378 21.1487ZM75.6822 31.9045C75.2295 32.0733 74.7631 32.1754 74.2831 32.2174C73.3699 32.2947 72.4621 32.0982 71.6533 31.6409C70.1226 30.786 68.9748 28.9814 68.9537 27.1254C68.9431 26.1974 69.0727 25.2888 69.4292 24.4328C69.766 23.6235 70.2898 22.9069 70.9812 22.3966C72.5434 21.2283 74.5517 21.4603 76.2286 22.2144C76.4625 22.3203 76.683 22.4329 76.9036 22.5521C76.9504 22.5787 77.2443 22.7043 77.2445 22.7577L77.2453 22.938L77.2492 23.866L77.2624 27.0306L77.2742 29.8748L77.278 30.7762C77.2783 30.8496 77.2721 30.9631 77.2789 31.0032C77.0265 31.2312 75.9286 31.81 75.6822 31.9045ZM77.2445 22.7443L77.2443 22.711C77.2511 22.7243 77.2578 22.7376 77.2645 22.7509C77.2512 22.7577 77.2445 22.751 77.2445 22.7443ZM117.911 26.2734C117.903 24.3306 117.242 22.6308 116.07 21.474C115.033 20.4635 113.663 19.9417 112.31 20.0408C110.53 20.1818 109.073 20.9223 108.078 22.1883C108.065 22.1951 108.058 22.2151 108.045 22.2352C108.031 22.2553 108.012 22.2821 107.985 22.3089C107.965 22.3424 107.939 22.3759 107.912 22.4094C107.912 22.416 107.899 22.4294 107.899 22.4361C107.852 22.4964 107.813 22.5633 107.773 22.6169C107.766 22.6303 107.753 22.6504 107.746 22.6571C107.713 22.7173 107.68 22.7709 107.64 22.8311C107.627 22.8512 107.621 22.8713 107.607 22.8913C107.574 22.9449 107.541 22.9984 107.515 23.0653C107.508 23.0921 107.495 23.1055 107.488 23.1255C107.455 23.1858 107.429 23.246 107.402 23.3062C107.396 23.3195 107.382 23.3396 107.382 23.3463C106.92 24.3497 106.685 25.5191 106.736 26.7407C106.759 27.4216 106.869 28.1022 107.058 28.7423C107.065 28.769 107.065 28.7824 107.078 28.809C107.099 28.8757 107.119 28.9491 107.139 29.0224C107.16 29.0691 107.173 29.1158 107.193 29.1624C107.207 29.2091 107.22 29.2558 107.241 29.2957C107.268 29.3824 107.295 29.4624 107.335 29.5424C107.342 29.5557 107.342 29.5691 107.348 29.5824C107.396 29.6757 107.429 29.769 107.476 29.8623C107.49 29.8956 107.503 29.9289 107.523 29.9622C107.544 30.0155 107.577 30.0688 107.597 30.1288C107.638 30.1954 107.665 30.2554 107.698 30.3154C107.705 30.3354 107.718 30.3553 107.725 30.382C107.772 30.4619 107.819 30.5419 107.866 30.6151L107.866 30.6218C108.041 30.9081 108.235 31.1877 108.45 31.4339C109.556 32.7646 111.046 33.4928 112.753 33.5524C112.833 33.5588 112.913 33.5584 113 33.5581C114.7 33.551 116.305 32.9367 117.647 31.7827L117.654 31.7694L117.647 30.1069L117.607 30.1471L117.581 30.1673C117.581 30.174 117.574 30.174 117.567 30.174C117.521 30.2276 117.474 30.2679 117.428 30.3081C117.395 30.335 117.361 30.3618 117.341 30.3886C117.315 30.4087 117.295 30.4289 117.268 30.4423C117.235 30.4758 117.195 30.5027 117.162 30.5296C117.155 30.5429 117.149 30.5497 117.135 30.5497C115.7 31.6774 113.948 32.2121 112.333 31.9785C111.145 31.8032 110.143 31.2466 109.432 30.3482C108.635 29.35 108.229 28.0097 108.222 26.3606L117.918 26.3201M116.186 25.1323L108.41 25.1647C108.43 25.0912 108.436 25.0244 108.456 24.9509C108.463 24.9375 108.469 24.9174 108.469 24.8974C108.489 24.8439 108.495 24.7905 108.515 24.7437C108.522 24.7102 108.535 24.6768 108.548 24.6434C108.555 24.61 108.568 24.5698 108.574 24.5364C108.594 24.4963 108.601 24.4562 108.621 24.4161C108.627 24.396 108.64 24.3692 108.647 24.3425C108.667 24.2957 108.68 24.2489 108.7 24.2088C108.706 24.1954 108.713 24.1686 108.726 24.1552C108.739 24.1084 108.766 24.0616 108.786 24.0148C108.792 24.0014 108.799 23.9813 108.805 23.968C108.825 23.9211 108.852 23.8743 108.872 23.8275C108.878 23.8141 108.885 23.794 108.885 23.7874C108.911 23.7405 108.938 23.6937 108.958 23.6535C108.964 23.6401 108.977 23.6334 108.977 23.6201C109.004 23.5732 109.03 23.5264 109.05 23.4795C109.057 23.4728 109.063 23.4595 109.07 23.4528C109.097 23.4059 109.123 23.3591 109.149 23.3122C109.156 23.2988 109.163 23.2921 109.169 23.2854C109.189 23.2453 109.222 23.2051 109.249 23.1649C109.262 23.1515 109.269 23.1448 109.269 23.1314C109.295 23.0913 109.322 23.0578 109.355 23.0176C109.362 23.0042 109.375 22.9908 109.382 22.9841C109.408 22.9439 109.441 22.9104 109.474 22.8769C109.481 22.8635 109.494 22.8501 109.501 22.8434C109.527 22.8099 109.561 22.7697 109.587 22.7429C109.601 22.7295 109.614 22.7161 109.627 22.7026C109.654 22.6692 109.687 22.6423 109.713 22.6155C109.727 22.5954 109.74 22.582 109.747 22.5753C109.78 22.5484 109.806 22.515 109.84 22.4881C109.853 22.4747 109.873 22.4613 109.886 22.4479C109.913 22.421 109.946 22.3942 109.966 22.3741C109.979 22.3607 109.992 22.3473 110.012 22.3338C110.039 22.307 110.059 22.2936 110.092 22.2734C110.112 22.26 110.132 22.2465 110.145 22.2331C110.172 22.213 110.198 22.1928 110.225 22.1794C110.245 22.1726 110.265 22.1525 110.285 22.1391C110.311 22.1189 110.331 22.1055 110.358 22.092C110.378 22.0786 110.398 22.0652 110.425 22.0517C110.451 22.0382 110.471 22.0248 110.498 22.0046C110.518 21.9912 110.544 21.9711 110.571 21.9576C110.591 21.9442 110.611 21.9374 110.637 21.9239C110.664 21.9038 110.691 21.897 110.717 21.8836C110.737 21.8701 110.757 21.8634 110.777 21.8499C110.81 21.8364 110.837 21.823 110.87 21.8095C110.89 21.8027 110.904 21.7893 110.93 21.7825C110.957 21.769 110.99 21.7556 111.03 21.7487C111.05 21.742 111.057 21.7352 111.077 21.7285C111.11 21.715 111.15 21.7015 111.183 21.688C111.197 21.6813 111.21 21.6812 111.23 21.6744C111.27 21.6676 111.31 21.6474 111.343 21.6406C111.356 21.6338 111.37 21.6338 111.383 21.6271C111.423 21.6135 111.47 21.6 111.503 21.5932C111.51 21.5932 111.523 21.5864 111.536 21.5864C111.576 21.5795 111.623 21.566 111.67 21.5591C111.676 21.5591 111.69 21.5523 111.69 21.5523C111.736 21.5388 111.789 21.5319 111.843 21.5317C112.009 21.5109 112.176 21.4969 112.343 21.4962C115.03 21.485 116.154 23.8371 116.186 25.1323ZM102.739 32.3858L102.743 33.2804L104.123 33.2747L104.041 13.5857L102.66 13.5915L102.691 21.0424M102.692 21.0558C101.175 20.3611 100.527 20.07 99.1264 20.0758C98.953 20.0766 98.773 20.0773 98.5997 20.0981C96.9064 20.2253 95.4889 20.9323 94.4737 22.1583C93.4917 23.3509 92.945 24.9756 92.9457 26.7248C92.9464 28.5075 93.5069 30.181 94.5191 31.4453C95.0621 32.1107 95.7178 32.6354 96.4529 32.9995C96.5331 33.046 96.6266 33.0789 96.7134 33.1186C96.7201 33.1253 96.7268 33.1253 96.7335 33.1252C96.8203 33.1583 96.9005 33.1913 96.994 33.2243C97.0006 33.2243 97.014 33.2309 97.0274 33.2375C97.1142 33.2639 97.1943 33.2969 97.2745 33.3233C97.2945 33.3299 97.3145 33.3298 97.3279 33.3364C97.4013 33.3628 97.4881 33.3825 97.5682 33.4022C97.5882 33.4088 97.6216 33.4153 97.6416 33.4219C97.7151 33.4416 97.7952 33.4546 97.8686 33.4744C97.902 33.4809 97.942 33.4807 97.9754 33.4939C98.0421 33.507 98.1088 33.5134 98.1756 33.5265C98.2223 33.533 98.2757 33.5394 98.3224 33.5459C98.3757 33.5524 98.4358 33.5588 98.4892 33.5652C98.4958 33.5719 98.5092 33.5718 98.5159 33.5718L98.5559 33.5716L98.6026 33.5781C98.656 33.5846 98.7093 33.5844 98.7693 33.5908C98.7894 33.5907 98.816 33.5906 98.8294 33.5905C98.9361 33.5968 99.0495 33.603 99.1562 33.6025C100.157 33.6117 101.049 33.3676 102.02 32.8161C102.247 32.6816 102.473 32.5404 102.705 32.3792M102.733 30.9704L102.733 30.9503C101.09 32.0989 99.3846 32.4198 97.8553 31.8854C97.8286 31.8788 97.8085 31.8655 97.7818 31.859C97.7618 31.8457 97.735 31.8325 97.7084 31.8326C97.6616 31.8061 97.6082 31.7929 97.5547 31.7665C97.5547 31.7665 97.548 31.7665 97.5414 31.7665C96.3588 31.244 95.3943 30.2332 94.8624 28.9935C94.8556 28.9802 94.8555 28.9602 94.8488 28.9535C94.8286 28.9002 94.8017 28.8469 94.7815 28.8003C94.7748 28.7803 94.768 28.7603 94.7613 28.7403C94.7477 28.6869 94.7275 28.6469 94.714 28.6002C94.7072 28.5802 94.7005 28.5602 94.6938 28.5469C94.6735 28.4869 94.6533 28.4269 94.633 28.3669C94.6262 28.3335 94.6194 28.3135 94.6126 28.2735C94.5991 28.2402 94.5856 28.2002 94.5788 28.1668C94.572 28.1335 94.5652 28.1001 94.5584 28.0734C94.5516 28.0267 94.5381 27.9934 94.5312 27.9534C94.5245 27.9267 94.5177 27.9 94.5176 27.8666C94.5039 27.7999 94.4903 27.7399 94.4768 27.6799C94.4766 27.6532 94.4699 27.6332 94.4698 27.6131C94.4629 27.5664 94.4561 27.513 94.4425 27.4664C94.4424 27.4397 94.4423 27.4129 94.4355 27.3863C94.4353 27.3395 94.4285 27.2928 94.4282 27.2394C94.4282 27.2194 94.4281 27.1994 94.4213 27.1794C94.4144 27.1126 94.4141 27.0392 94.4138 26.9657L94.4128 26.7387L94.4126 26.692C94.4123 26.6252 94.4187 26.5518 94.4184 26.485L94.4184 26.4783C94.5219 24.121 95.9124 21.745 98.5322 21.5004C99.7787 21.375 101.174 21.7631 102.691 22.6448L102.726 30.9504C102.726 30.9437 102.739 30.9369 102.739 30.9369L102.733 30.9704ZM102.718 22.6514C102.712 22.6514 102.705 22.6447 102.705 22.6447L102.705 22.6114L102.718 22.6514ZM122.303 15.9531L129.316 24.9907L129.343 25.0306L129.376 24.9904L136.36 15.8944L136.359 15.8277L136.393 15.7875L136.406 15.7874L136.406 15.8408L136.36 15.8944L136.432 33.1465L137.946 33.1402L137.863 13.4712L136.376 13.4774L136.363 13.4975L129.332 22.5603M129.339 22.5603L122.286 13.5563L122.273 13.5363L120.779 13.5425L120.861 33.2115L122.368 33.2052L122.296 15.9531M129.369 24.937L129.382 24.9236L129.389 24.9369L129.369 24.937ZM150.967 31.0895C150.489 31.4787 149.838 32.0156 149.564 31.8699C149.477 31.8235 149.43 31.6901 149.429 31.4832L149.392 22.6635C149.392 22.6101 149.391 22.5634 149.385 22.51C149.384 22.4966 149.384 22.4833 149.384 22.4766C149.384 22.4232 149.377 22.3832 149.364 22.3298C149.364 22.3165 149.357 22.3098 149.357 22.2965C149.35 22.2631 149.343 22.2298 149.337 22.1964C149.33 22.1764 149.33 22.1497 149.323 22.1297C149.309 22.103 149.309 22.0763 149.303 22.0497C149.289 22.0096 149.269 21.963 149.262 21.9163C149.262 21.9096 149.255 21.8963 149.249 21.883C149.04 21.3497 148.611 20.8708 148.009 20.5128C147.996 20.5061 147.976 20.4929 147.962 20.4796L147.949 20.4796C147.855 20.4266 147.762 20.3736 147.662 20.3273C147.648 20.314 147.628 20.3074 147.615 20.3007C147.568 20.2809 147.528 20.2611 147.481 20.2479C147.461 20.2413 147.454 20.2347 147.448 20.2347C146.86 19.9901 146.199 19.8593 145.499 19.8489L145.479 19.849L145.306 19.8497C145.292 19.8498 145.272 19.8498 145.259 19.8499L145.139 19.8504L145.099 19.8572L145.059 19.8574C145.019 19.8576 144.979 19.8644 144.946 19.8646C144.919 19.8713 144.879 19.8715 144.852 19.8783C144.826 19.8784 144.812 19.8785 144.779 19.8786C144.712 19.8856 144.659 19.8991 144.592 19.9061C143.793 20.0296 142.96 20.3202 142.169 20.8309C142.102 20.8712 142.036 20.9183 141.969 20.9653C141.923 20.9988 141.87 21.0391 141.816 21.0727C141.803 21.0861 141.783 21.0996 141.776 21.1063C141.71 21.1533 141.644 21.207 141.577 21.2607L141.564 21.2741L141.57 22.783L141.63 22.7226L141.636 22.7159C141.749 22.6153 141.856 22.5214 141.969 22.4274L141.969 22.4208C142.029 22.3805 142.068 22.3469 142.122 22.3066C142.128 22.2999 142.141 22.2865 142.155 22.2865C142.195 22.2529 142.235 22.2194 142.288 22.1858C142.308 22.179 142.334 22.1589 142.354 22.1454C142.388 22.1186 142.427 22.0984 142.461 22.0715C142.507 22.0446 142.54 22.0111 142.587 21.9842C142.6 21.9842 142.62 21.964 142.64 21.9573C143.399 21.5001 144.251 21.2228 145.118 21.1591C145.424 21.1445 145.718 21.1566 145.991 21.1955L145.998 21.1955C146.605 21.2864 147.12 21.518 147.475 21.877C147.722 22.1163 147.877 22.4095 147.938 22.7297C147.945 22.7363 147.945 22.743 147.945 22.743C147.952 22.7897 147.959 22.8364 147.966 22.8765C147.972 22.8898 147.972 22.9031 147.972 22.9165C147.979 22.9699 147.98 23.0166 147.98 23.07L147.989 25.2866C147.869 25.3005 147.749 25.301 147.629 25.3015C146.902 25.3245 146.196 25.421 145.536 25.5639C145.523 25.564 145.503 25.5707 145.483 25.5775C145.43 25.5911 145.376 25.6046 145.323 25.6182C145.276 25.6251 145.23 25.6453 145.176 25.6522L145.176 25.6455L145.123 25.6658L145.096 25.6726L145.096 25.6793C144.877 25.7336 144.637 25.8147 144.411 25.8958C144.384 25.9026 144.351 25.916 144.324 25.9228C144.311 25.9296 144.291 25.943 144.271 25.9431C144.064 26.0241 143.865 26.105 143.672 26.1993C142.407 26.8255 141.551 27.7171 141.135 28.8672C141.122 28.8873 141.115 28.914 141.102 28.9408C141.089 28.9875 141.076 29.0277 141.063 29.0745C141.05 29.1146 141.036 29.1547 141.023 29.1948C141.017 29.2282 141.004 29.2616 140.997 29.3017C140.977 29.3753 140.958 29.4555 140.938 29.5423C140.781 30.3375 140.945 31.1447 141.354 31.804C141.388 31.8506 141.408 31.8905 141.435 31.9372C141.442 31.9438 141.448 31.9505 141.455 31.9638C141.649 32.23 141.877 32.4761 142.145 32.682C142.948 33.2862 144.002 33.4955 145.122 33.2705L145.168 33.2569L145.201 33.2501C145.734 33.141 146.274 32.9251 146.833 32.6224C146.846 32.6156 146.859 32.6089 146.873 32.6022C146.906 32.582 146.939 32.5618 146.966 32.5484C147.312 32.3533 147.664 32.1181 148.016 31.8496C148.017 31.8963 148.024 31.9497 148.024 31.9965C148.045 32.2367 148.092 32.4435 148.146 32.6169C148.146 32.6302 148.146 32.6369 148.146 32.6436C148.16 32.6636 148.173 32.6969 148.18 32.7236C148.18 32.7369 148.187 32.7502 148.194 32.7636C148.2 32.7769 148.214 32.8035 148.214 32.8169C148.221 32.8302 148.227 32.8502 148.234 32.8635C148.241 32.8835 148.248 32.8969 148.261 32.9102C148.274 32.9368 148.281 32.9635 148.301 32.9834L148.308 32.9901C148.395 33.1433 148.516 33.2496 148.649 33.3225C149.331 33.6401 150.395 32.8612 151.518 31.9618L151.538 31.9484L151.532 30.6598L151.466 30.7002C151.326 30.7942 151.154 30.9418 150.967 31.0895ZM141.61 22.676L141.59 22.6627C141.596 22.656 141.609 22.6426 141.609 22.6359L141.61 22.676ZM141.65 22.6958L141.623 22.6826C141.63 22.6692 141.643 22.6625 141.65 22.6558L141.65 22.6958ZM146.815 31.5074C146.808 31.5075 146.801 31.5075 146.801 31.5075C146.748 31.5478 146.695 31.5747 146.642 31.6083C146.628 31.615 146.622 31.6151 146.615 31.6218C146.568 31.6487 146.515 31.6756 146.462 31.7025C146.455 31.7026 146.442 31.7026 146.442 31.7093C146.382 31.7362 146.329 31.7632 146.269 31.7968C146.256 31.8035 146.236 31.8036 146.229 31.8103C146.182 31.8306 146.143 31.8441 146.109 31.8642C146.083 31.8777 146.049 31.8845 146.016 31.9047C145.996 31.9048 145.969 31.9182 145.943 31.925C145.91 31.9385 145.863 31.9521 145.83 31.9656C145.816 31.9723 145.803 31.9723 145.796 31.979C145.756 31.9926 145.71 32.0061 145.663 32.013C144.937 32.2096 144.197 32.1793 143.589 31.9148C143.549 31.895 143.502 31.8751 143.448 31.8486C143.435 31.842 143.422 31.8354 143.415 31.8287C143.388 31.8155 143.362 31.8023 143.335 31.789C143.308 31.7758 143.281 31.7559 143.241 31.7293C143.241 31.7293 143.234 31.7227 143.228 31.7227C143.107 31.6431 143 31.5634 142.9 31.4637C142.605 31.1912 142.411 30.8515 142.336 30.4846L142.336 30.4779C142.329 30.4312 142.315 30.3912 142.315 30.3511C142.308 30.3245 142.308 30.3044 142.302 30.2777C142.301 30.2644 142.301 30.251 142.301 30.231C142.295 30.191 142.294 30.1509 142.294 30.1109C142.294 30.0374 142.294 29.9773 142.3 29.9105C142.3 29.8905 142.3 29.8838 142.306 29.8638C142.313 29.8037 142.313 29.7436 142.326 29.6901C142.326 29.6634 142.332 29.6367 142.339 29.6099C142.339 29.5765 142.345 29.5498 142.345 29.5365C142.456 29.0219 142.695 28.5669 143.073 28.158C143.465 27.7425 144.01 27.3863 144.662 27.1165L144.669 27.1098C144.696 27.103 144.722 27.0896 144.749 27.0828C144.802 27.0625 144.849 27.0423 144.902 27.0221C144.909 27.022 144.922 27.022 144.935 27.0152C145.015 26.9882 145.095 26.9612 145.182 26.9341C145.262 26.9071 145.342 26.8867 145.422 26.8663C145.455 26.8528 145.501 26.8393 145.541 26.8324C145.601 26.8188 145.661 26.8052 145.721 26.7916C145.768 26.7848 145.808 26.7712 145.841 26.7578C145.928 26.7374 146.008 26.7237 146.094 26.7033C146.121 26.6965 146.154 26.6897 146.181 26.6896C146.268 26.6692 146.361 26.6621 146.448 26.6484C146.481 26.6416 146.514 26.6348 146.548 26.628C146.628 26.6143 146.714 26.6072 146.801 26.5935C146.827 26.5934 146.854 26.5866 146.881 26.5865C146.987 26.5727 147.101 26.5589 147.207 26.5518L147.261 26.5515C147.361 26.5444 147.461 26.5373 147.554 26.5303L147.634 26.5299C147.747 26.5228 147.867 26.5223 147.981 26.5218L147.998 30.521C147.619 30.9232 147.227 31.252 146.815 31.5074ZM147.998 30.521C148.004 30.521 148.011 30.5076 148.011 30.5076L147.998 30.5411L147.998 30.521ZM91.271 31.3253C90.7925 31.7212 90.1413 32.2648 89.8673 32.119C89.7737 32.0727 89.7331 31.9393 89.7323 31.7323L89.6955 22.9127C89.6952 22.8593 89.6884 22.8126 89.6815 22.7592C89.6814 22.7458 89.6814 22.7325 89.6814 22.7258C89.6745 22.6724 89.6676 22.6324 89.6674 22.579C89.6674 22.5723 89.6607 22.559 89.6606 22.5456C89.6538 22.5123 89.647 22.4789 89.6402 22.4456C89.6334 22.4256 89.6266 22.3989 89.6132 22.3789C89.6131 22.3522 89.6063 22.3255 89.5996 22.2988C89.586 22.2588 89.5658 22.2122 89.5523 22.1655C89.5523 22.1588 89.5456 22.1455 89.5455 22.1388C89.3366 21.6056 88.9078 21.12 88.2994 20.762C88.286 20.7487 88.2727 20.7421 88.2526 20.7288C88.2459 20.7288 88.2392 20.7222 88.2326 20.7222C88.1457 20.6758 88.0588 20.6228 87.9652 20.5831C87.9519 20.5698 87.9251 20.5566 87.9051 20.55C87.865 20.5301 87.8182 20.5103 87.7782 20.4971C87.7648 20.4905 87.7514 20.4838 87.7448 20.4839C87.1636 20.2393 86.5028 20.1085 85.8026 20.0981L85.7759 20.0982L85.6092 20.0989C85.5892 20.099 85.5759 20.099 85.5625 20.0991L85.4492 20.0995L85.4025 20.1064L85.3625 20.1066C85.3225 20.1067 85.2892 20.1136 85.2492 20.1137C85.2159 20.1205 85.1825 20.1207 85.1492 20.1275C85.1292 20.1276 85.1025 20.1277 85.0892 20.1277C84.1627 20.2384 83.1905 20.5763 82.2729 21.2144C82.2463 21.2346 82.213 21.2547 82.1798 21.2816C82.1466 21.3084 82.1133 21.3286 82.0735 21.3622C82.007 21.4092 81.9405 21.4562 81.8807 21.5098L81.8674 21.5233L81.8737 23.0321L81.9335 22.9718L81.9401 22.9651C82.0995 22.8175 82.259 22.6767 82.4319 22.5558C82.4318 22.5491 82.4451 22.5424 82.4451 22.5424C82.4917 22.5021 82.5449 22.4685 82.5914 22.4349C82.6047 22.4282 82.618 22.4081 82.6379 22.4013C82.6712 22.3678 82.7177 22.3409 82.7576 22.3207C82.7909 22.2939 82.8241 22.2737 82.8574 22.2535C82.884 22.2334 82.9039 22.22 82.9305 22.1998C83.6888 21.7427 84.5413 21.472 85.4079 21.4083C85.7146 21.3937 86.0081 21.4058 86.2884 21.4447C86.8956 21.5356 87.4167 21.7672 87.7716 22.1262C88.0127 22.3656 88.1673 22.6587 88.2287 22.9789C88.2287 22.9856 88.2354 22.9922 88.2354 22.9922C88.2422 23.0389 88.2491 23.0856 88.2559 23.1257C88.256 23.139 88.2561 23.1524 88.2561 23.1657C88.263 23.2191 88.2632 23.2659 88.2634 23.3193L88.2727 25.5359C88.1594 25.5497 88.0393 25.5502 87.9193 25.5507L87.9126 25.5507C87.1858 25.5738 86.4794 25.6702 85.8264 25.8131C85.8064 25.8132 85.7931 25.82 85.7798 25.8267C85.7265 25.8403 85.6732 25.8538 85.6133 25.8674C85.5666 25.8743 85.52 25.8945 85.4734 25.9014L85.4734 25.8947L85.4201 25.915L85.3934 25.9218L85.3935 25.9284C85.167 25.9828 84.9406 26.0639 84.7075 26.145C84.6809 26.1518 84.6542 26.1652 84.6276 26.172C84.6076 26.1788 84.5877 26.1922 84.5677 26.1923C84.3613 26.2733 84.1682 26.3542 83.9819 26.4484C82.7108 27.0747 81.8609 27.9595 81.4456 29.1096C81.4324 29.1364 81.4191 29.1632 81.4126 29.1966C81.3928 29.2434 81.3796 29.2835 81.3731 29.3236C81.36 29.3637 81.3468 29.4105 81.3337 29.4506C81.3205 29.4907 81.3139 29.5175 81.3007 29.5509C81.2811 29.6311 81.2614 29.7113 81.2484 29.7915C81.0917 30.5866 81.2484 31.3939 81.6646 32.0531C81.6915 32.0997 81.725 32.1396 81.7519 32.1863C81.7586 32.1929 81.7586 32.1996 81.7653 32.2062C81.9531 32.4725 82.1875 32.7186 82.4551 32.9244C83.2512 33.5287 84.3124 33.7379 85.4251 33.5129L85.4718 33.4994L85.4784 33.4994L85.5117 33.4925C86.0381 33.3835 86.584 33.1676 87.1429 32.8648C87.1496 32.8648 87.1562 32.8581 87.1696 32.858C87.2028 32.8379 87.2427 32.811 87.2827 32.7908C87.6353 32.5957 87.9811 32.3673 88.3201 32.1054C88.3272 32.2056 88.3409 32.299 88.348 32.3924C88.348 32.3991 88.348 32.4058 88.3547 32.4058C88.3549 32.4525 88.3684 32.4858 88.3752 32.5258L88.3752 32.5325C88.3821 32.5792 88.3889 32.6126 88.4024 32.6459L88.4024 32.6593C88.4228 32.7393 88.4364 32.806 88.4567 32.8727C88.4567 32.886 88.4634 32.886 88.4634 32.8927C88.4904 32.9593 88.5106 33.0193 88.5309 33.0727C88.5511 33.1327 88.5846 33.1726 88.6115 33.2192C88.6182 33.2259 88.6182 33.2325 88.6183 33.2459C88.7122 33.3924 88.8327 33.4987 88.9664 33.5716C89.6479 33.8892 90.7515 33.0768 91.8216 32.211L91.8348 32.1976L91.8295 30.909L91.7696 30.9494C91.6233 31.0434 91.4571 31.1777 91.271 31.3253ZM86.2065 32.1944C86.2065 32.1944 86.1999 32.2011 86.1932 32.2011C86.1466 32.2147 86.1066 32.2282 86.06 32.2417C86.04 32.2485 86.0134 32.2553 86.0001 32.262C85.9734 32.2688 85.9535 32.2756 85.9268 32.2757C85.214 32.4656 84.487 32.4286 83.8924 32.1707C83.8456 32.1508 83.7989 32.131 83.7521 32.1045C83.7454 32.0978 83.7254 32.0979 83.7187 32.0913C83.692 32.078 83.6586 32.0648 83.6318 32.0449C83.6051 32.0317 83.585 32.0117 83.5516 31.9985C83.5449 31.9918 83.5382 31.9852 83.5248 31.9786C83.4045 31.9056 83.2974 31.8193 83.197 31.7262C82.9025 31.4537 82.7143 31.114 82.6261 30.7472L82.6261 30.7405C82.6125 30.6938 82.6057 30.6538 82.5989 30.6137C82.5921 30.5871 82.592 30.567 82.5919 30.5336C82.5918 30.5203 82.5918 30.5069 82.5917 30.4869C82.5848 30.4469 82.5847 30.4068 82.5845 30.3668C82.5842 30.2933 82.584 30.2332 82.5903 30.1664C82.5903 30.1531 82.5969 30.1397 82.5968 30.1197C82.6032 30.0596 82.6096 29.9994 82.6161 29.946C82.6226 29.9193 82.6292 29.8925 82.6291 29.8658C82.6357 29.8391 82.6355 29.8124 82.6421 29.7857C82.74 29.2778 82.9848 28.8161 83.3699 28.4139C83.7617 28.005 84.287 27.6556 84.9194 27.3926C84.9328 27.3859 84.9461 27.3791 84.966 27.3657C84.9927 27.3589 85.0126 27.3455 85.0393 27.3387C85.0925 27.3184 85.1458 27.2982 85.2057 27.2779C85.2124 27.2779 85.2191 27.2779 85.2257 27.2711C85.3189 27.2441 85.4122 27.2103 85.4987 27.1832C85.5653 27.1629 85.6386 27.1426 85.7119 27.1222C85.7585 27.1087 85.8051 27.0951 85.8451 27.0883C85.8984 27.0747 85.9584 27.0611 86.0117 27.0475C86.0583 27.0407 86.0983 27.0271 86.1449 27.0136C86.2248 26.9932 86.2981 26.9796 86.3714 26.9659C86.4114 26.9591 86.4514 26.9522 86.4914 26.9454C86.578 26.925 86.658 26.918 86.7446 26.9043C86.7846 26.8974 86.8112 26.8906 86.8512 26.8838C86.9312 26.8701 87.0045 26.8631 87.0845 26.8561C87.1178 26.8493 87.1511 26.8425 87.1711 26.8424C87.2845 26.8353 87.3911 26.8215 87.5045 26.8143L87.5578 26.8141C87.6578 26.807 87.7578 26.7999 87.8511 26.7928L87.9311 26.7925C88.0445 26.7853 88.1578 26.7849 88.2712 26.7844L88.2879 30.7703C87.5509 31.5612 86.8192 31.9849 86.2065 32.1944ZM88.2945 30.7702C88.3012 30.7702 88.3078 30.7568 88.3078 30.7568L88.2946 30.7836L88.2945 30.7702Z" fill="#474747"/>
</svg>
